PathFileType	4	(X/Y/Z)	D:\TRACE\v60_Jaco2_6-2-23\BothDRS_Motion2_3-v60.trc
DataRate	CameraRate	NumFrames	NumMarkers	Units	OrigDataRate	OrigDataStartFrame	OrigNumFrames
100.00	100.00	      38	9	mm	100.00	4688	      7500
Frame#	Time	front left toe			Front right toe			aft left toe			aft right toe			Arm			FL body			FR body			AL Body			AR Body			
		X1	Y1	Z1	X2	Y2	Z2	X3	Y3	Z3	X4	Y4	Z4	X5	Y5	Z5	X6	Y6	Z6	X7	Y7	Z7	X8	Y8	Z8	X9	Y9	Z9	

4688	46.870	-138.53355	15.98357	-165.04913	163.56511	12.83690	-203.62509	-229.40533	18.68458	425.23303	272.38852	53.00026	440.75940	157.71872	1085.72119	-758.46033	-70.86230	558.12811	-319.04248	89.51337	554.27960	-325.68341	-31.17207	600.96680	624.53473	125.57363	591.70776	620.19043	
4689	46.880	-139.13960	16.03265	-167.04449	164.24330	13.14156	-203.41422	-228.07231	18.01105	425.55392	275.92075	45.52388	442.74072	156.98550	1086.85742	-756.84045	-68.17027	558.90070	-316.90143	91.95868	555.24951	-323.80539	-28.11286	599.17566	626.69312	128.67816	590.15460	622.16327	
4690	46.890	-138.66061	17.29406	-165.24957	165.53969	13.68594	-202.90146	-226.85466	17.13756	426.17700	279.85297	38.54576	444.41864	156.38734	1088.35779	-754.82782	-65.63601	559.73444	-315.02295	94.65839	556.40131	-321.72379	-24.74878	597.30688	628.97021	132.53651	588.39893	624.34015	
4691	46.900	-136.92944	18.23140	-165.70442	166.50961	14.24683	-202.48909	-226.10091	16.64558	426.47186	282.18295	31.55294	445.82251	155.98515	1089.94958	-752.48108	-63.26605	561.13690	-312.65265	97.01170	558.19702	-319.82181	-21.21912	595.46814	631.28412	135.40295	586.72760	626.52277	
4692	46.910	-135.51581	18.94239	-164.13448	167.66258	14.93428	-202.13454	-224.53041	15.89369	427.28168	284.32748	21.89899	445.48547	156.27679	1092.22192	-749.57397	-60.53502	562.24005	-309.83817	99.61468	559.41345	-317.58157	-17.98072	593.84088	633.45160	139.09091	585.74316	628.80109	
4693	46.920	-134.73804	19.84443	-163.78923	168.34508	15.50671	-201.97200	-223.59001	15.23535	427.65875	286.57245	14.08770	442.45062	156.91029	1094.97449	-746.22986	-58.66046	563.56488	-307.84814	101.82505	560.64154	-315.45032	-14.87516	592.70154	635.43744	142.33438	584.87469	630.94647	
4694	46.930	-133.61534	20.38807	-163.23859	169.96083	16.39077	-200.88588	-221.78537	14.60206	427.90952	289.23160	14.94907	444.23386	158.17723	1098.19702	-743.20319	-55.42852	563.06244	-305.22665	104.50192	561.32483	-313.15631	-11.48708	592.96338	637.86298	145.31052	586.05719	632.85077	
4695	46.940	-131.38023	19.87199	-160.32506	172.01128	19.76735	-200.73651	-217.76195	16.41664	428.48520	289.26685	14.58411	447.92615	160.04739	1101.49988	-740.68396	-53.32461	563.99377	-303.41321	107.20549	562.38580	-311.09137	-8.38094	593.04474	640.24542	148.25906	586.35297	634.97333	
4696	46.950	-130.09517	20.93413	-160.94424	173.57854	24.50123	-197.26891	-211.11244	19.28087	430.52945	290.28333	12.32341	447.21811	161.25081	1104.20886	-739.04449	-50.89106	565.64349	-301.49689	109.24603	563.94012	-309.44614	-6.24591	591.94574	641.76270	151.11897	585.19135	637.23480	
4697	46.960	-129.25919	21.68336	-160.63725	175.03590	29.38767	-192.62872	-203.85539	20.33623	434.45007	291.71246	11.32872	447.00690	162.13240	1106.06665	-737.26367	-48.79335	566.96631	-300.08838	111.27166	566.18646	-307.98950	-3.45113	589.86987	643.89807	153.65390	583.88141	638.87177	
4698	46.970	-128.65880	21.62403	-160.17999	177.40247	40.34145	-190.47591	-196.61313	27.57240	434.90573	292.52423	10.06360	447.99292	162.12268	1107.55566	-735.04431	-47.03340	568.33032	-298.69379	113.25081	567.35632	-306.74405	-1.28815	588.04529	645.29187	155.65700	582.13770	639.63080	
4699	46.980	-127.87697	21.86347	-160.02823	181.20435	49.68295	-188.35086	-189.91576	34.90891	435.07571	293.87891	8.97954	447.72015	162.80049	1109.84741	-732.82245	-45.21141	569.27710	-297.44537	114.99401	568.14093	-305.50702	1.38140	586.33124	646.73395	158.07404	580.19867	640.86121	
4700	46.990	-127.09338	21.69567	-159.71022	184.10226	62.25308	-188.87555	-188.29523	46.53936	434.47696	294.41006	7.88617	448.19214	163.24019	1112.20483	-730.98657	-43.75653	570.04016	-296.44409	116.80874	568.79114	-304.43390	3.89055	583.99152	648.04218	160.62817	578.04041	642.20972	
4701	47.000	-126.17344	22.17583	-159.39871	187.24426	74.32803	-189.51817	-186.59671	58.00433	434.27640	295.21179	6.48631	448.35120	163.76288	1114.57263	-729.04932	-41.59168	570.62860	-295.08737	118.26337	569.88586	-303.49667	6.47167	581.84509	649.38123	163.15109	575.72076	643.38300	
4702	47.010	-125.90086	22.77128	-159.01094	190.89166	86.52890	-189.77940	-183.71379	68.70935	435.63199	296.74185	5.87692	448.67572	163.76534	1116.47656	-727.09839	-40.65146	571.48712	-294.11734	119.88645	570.56989	-302.61249	8.64896	579.49060	650.49121	165.15221	573.76086	644.02344	
4703	47.020	-125.10843	22.94820	-158.47874	195.08665	98.51748	-190.00607	-179.91844	80.68293	437.77945	297.00992	4.63171	448.96841	163.83621	1118.16809	-724.82098	-38.99557	572.12152	-293.05734	121.11464	570.99078	-301.75507	10.95002	577.50879	651.97681	167.42226	571.69257	645.56506	
4704	47.030	-124.32303	23.15921	-158.32344	199.54092	110.09112	-189.55696	-174.29359	91.10242	440.31970	297.79770	3.49283	449.13510	163.72647	1120.22827	-723.29401	-37.65779	572.39441	-292.34131	122.46021	571.48920	-300.86676	12.55451	575.76306	652.44189	170.10800	569.76819	647.42432	
4705	47.040	-123.47969	23.47544	-158.11124	202.97185	120.82648	-188.51143	-168.36113	101.01919	442.92447	299.01373	2.65556	449.63638	164.38055	1122.08008	-721.70636	-36.60541	573.27887	-291.00558	123.70274	571.73633	-299.77835	14.54224	573.89465	653.53210	170.94136	567.32623	646.80481	
4706	47.050	-122.73396	23.97971	-157.76779	205.85475	130.96550	-187.23853	-162.47874	109.39353	445.21344	299.45410	1.91762	450.07587	164.85350	1123.36072	-720.25940	-35.22318	573.59155	-289.93536	124.78526	572.20673	-298.92682	16.67235	572.33154	654.22803	173.00159	565.74951	647.93384	
4707	47.060	-121.62843	23.85715	-157.20953	208.01735	139.58177	-185.72662	-157.78561	117.33678	447.02881	300.13208	0.65252	450.31073	165.51604	1124.29736	-718.59204	-34.59213	574.27771	-288.82709	125.54434	572.66986	-298.13898	18.57314	570.92487	655.26361	175.31903	564.42944	649.25183	
4708	47.070	-121.88892	24.94704	-156.89105	210.89442	145.28249	-183.64606	-153.16719	123.67905	449.44434	301.06024	-0.42246	450.59207	166.97667	1125.01709	-716.90790	-33.71645	574.56696	-287.91223	126.54937	572.95490	-297.15292	21.15645	569.55609	657.22589	177.04808	562.89954	649.48962	
4709	47.080	-121.42943	25.33719	-156.23564	213.81105	148.55817	-181.44189	-148.49460	128.39384	452.06766	301.81601	-1.51143	450.90732	168.16003	1125.62427	-715.15375	-33.13216	575.02417	-286.54828	126.68825	572.87836	-295.89792	22.68038	568.34863	657.29523	180.15099	562.08197	652.42169	
4710	47.090	-121.04681	25.86495	-155.88576	217.19258	149.66962	-179.11990	-144.16096	130.09599	455.54248	302.33017	-2.34411	451.06720	169.14276	1126.32166	-713.50781	-32.13410	575.07629	-285.38684	127.40214	573.00366	-294.80334	24.32499	567.59760	658.62061	180.79668	560.65875	651.26984	
4711	47.100	-120.08688	25.86376	-155.37564	219.73204	148.19196	-177.18106	-139.06403	128.62914	459.67361	302.75046	-3.40668	451.19186	169.68895	1126.92651	-712.19928	-31.65165	575.54443	-284.05096	127.88998	573.28619	-294.02307	26.27685	566.91132	659.61853	182.78412	560.33179	653.11841	
4712	47.110	-119.74031	26.61061	-155.09834	222.46700	145.13275	-174.80264	-134.86311	124.59270	464.24796	303.66196	-4.07126	451.51257	171.09911	1127.73047	-710.97491	-31.25717	576.03339	-283.01270	128.86435	573.75122	-292.74008	27.98912	566.47351	660.86670	184.54726	559.49670	654.22723	
4713	47.120	-119.16188	27.15755	-154.59795	224.33273	140.38760	-172.68056	-129.90865	118.99837	468.50735	304.10507	-4.95301	451.67365	171.24393	1128.26904	-709.78522	-30.42192	576.68585	-281.97290	129.15195	573.96503	-292.22003	29.87528	565.87524	661.79218	186.37172	558.68542	655.21527	
4714	47.130	-118.82925	27.39305	-154.40639	226.36124	134.56439	-170.49593	-124.92199	112.99223	472.49057	304.45593	-5.93495	451.86920	171.93872	1128.80115	-708.47491	-30.18018	576.96814	-281.00372	130.08691	574.08179	-291.11398	31.31175	565.36957	662.73932	187.91853	557.92767	656.14142	
4715	47.140	-118.39883	27.40674	-154.02484	228.11841	127.58285	-168.98897	-120.09174	106.27693	475.94623	304.59729	-6.73033	451.97754	172.10081	1129.10168	-707.25165	-28.99737	577.28522	-279.94858	130.53252	574.37366	-290.35132	32.89624	564.56561	663.53400	189.35501	557.30981	657.29578	
4716	47.150	-117.68227	27.50504	-153.45439	230.66626	120.04554	-166.96182	-115.32602	100.03049	478.86615	305.04047	-7.66084	452.21225	172.58563	1129.51929	-705.93872	-28.68089	577.50555	-278.93274	131.31783	574.39893	-289.43259	34.01380	563.81183	664.74658	190.92603	556.41504	657.97021	
4717	47.160	-117.68186	28.02111	-153.30618	233.92409	111.49516	-165.10123	-111.07133	93.53196	481.34042	305.71661	-8.12182	452.58102	173.07013	1130.00415	-704.61646	-28.16766	577.75067	-277.86313	132.11902	574.52856	-288.90518	35.03811	563.19824	665.39166	192.48422	555.40784	658.98657	
4718	47.170	-117.68292	28.60541	-153.14458	237.41917	102.06268	-163.19701	-106.59607	86.02686	483.84995	306.29156	-9.11078	452.96152	173.91245	1130.57300	-703.53931	-27.96454	578.53271	-277.07535	132.50471	574.83014	-288.16995	36.59894	562.35095	666.46613	193.56995	554.56592	659.93311	
4719	47.180	-117.41731	28.92539	-152.77002	240.15820	91.88199	-161.33487	-102.14623	77.30048	486.40176	306.57529	-9.55091	453.12686	174.95963	1130.65381	-702.29004	-27.07689	578.61261	-276.13684	133.05376	575.07166	-287.48779	37.88777	561.59210	667.32751	195.60614	553.89441	659.34003	
4720	47.190	-117.01390	29.17745	-152.51012	243.30983	81.76510	-159.41132	-97.53345	67.54159	488.91077	306.57315	-10.79187	453.23706	175.82521	1131.26538	-701.12238	-26.69408	578.62006	-275.48795	133.52853	575.15588	-286.62930	38.92496	560.89539	668.20166	196.98540	553.16980	660.25781	
4721	47.200	-116.95712	29.35063	-152.14220	245.60069	72.68187	-158.26208	-93.07883	57.31127	491.48248	306.84375	-11.27347	453.40756	176.49547	1131.86304	-699.61108	-25.94185	578.90161	-274.50006	133.49132	575.13165	-285.81570	40.53050	560.18896	668.66522	198.28265	552.67188	661.04120	
4722	47.210	-116.58649	29.45085	-151.71106	247.94716	63.29142	-157.42793	-89.33813	46.97417	493.62756	306.89145	-12.21512	453.50256	177.01646	1132.24072	-698.37836	-25.72299	579.03510	-273.73422	134.18874	575.58081	-285.60059	41.23997	559.32581	669.82855	199.41473	551.86200	661.76257	
4723	47.220	-116.74475	30.09085	-151.27144	249.80377	54.54868	-156.91251	-86.52516	38.04519	494.79675	306.89865	-12.84912	453.63361	177.45135	1133.06580	-697.04449	-25.21916	579.38477	-272.92551	134.61049	575.76270	-284.47397	42.21762	558.53229	670.41681	200.65981	551.27710	662.52332	
4724	47.230	-116.80533	30.35491	-151.09845	251.43994	45.98748	-156.55812	-85.04948	29.15277	495.53299	306.95081	-13.63876	453.81976	177.70403	1133.80627	-695.86206	-24.83328	579.91504	-272.13461	135.14413	576.04175	-283.95483	43.58223	557.56024	671.38452	201.68398	550.70306	662.97681	
4725	47.240	-116.94772	30.73700	-150.93089	252.50694	37.85268	-156.53554	-83.97343	21.09913	495.06735	306.89374	-14.39498	453.86642	178.19685	1134.53992	-694.49554	-24.44748	579.92914	-271.54474	135.59341	576.23792	-283.38922	44.52676	557.03516	671.85681	199.50697	547.25647	660.31573	
